<svg xmlns="http://www.w3.org/2000/svg" xmlns:xlink="http://www.w3.org/1999/xlink" width="500" zoomAndPan="magnify" viewBox="0 0 375 374.999991" height="500" preserveAspectRatio="xMidYMid meet" version="1.2"><defs><filter x="0%" y="0%" width="100%" filterUnits="objectBoundingBox" id="7d6e70319e" height="100%"><feColorMatrix values="0 0 0 0 1 0 0 0 0 1 0 0 0 0 1 0 0 0 1 0" type="matrix" in="SourceGraphic"/></filter><clipPath id="af8467102e"><path d="M 0 0 L 164.113281 0 L 164.113281 143.652344 L 0 143.652344 Z M 0 0 "/></clipPath><clipPath id="92a1bfe293"><rect x="0" width="165" y="0" height="144"/></clipPath><clipPath id="9b19db3e61"><path d="M 7 6.789062 L 101 6.789062 L 101 111 L 7 111 Z M 7 6.789062 "/></clipPath><clipPath id="1bee976ad9"><rect x="0" width="101" y="0" height="111"/></clipPath><clipPath id="7afc88260d"><path d="M 113 81.777344 L 257 81.777344 L 257 243 L 113 243 Z M 113 81.777344 "/></clipPath><clipPath id="8d9a920662"><path d="M 119 115 L 262.527344 115 L 262.527344 179 L 119 179 Z M 119 115 "/></clipPath><clipPath id="479c3e0888"><rect x="0" width="112" y="0" height="37"/></clipPath></defs><g id="f20fd3805d"><rect x="0" width="375" y="0" height="374.999991" style="fill:#ffffff;fill-opacity:1;stroke:none;"/><rect x="0" width="375" y="0" height="374.999991" style="fill:#141414;fill-opacity:1;stroke:none;"/><g mask="url(#185060d04e)" transform="matrix(1,0,0,1,0,0)"><g clip-path="url(#92a1bfe293)"><g clip-rule="nonzero" clip-path="url(#af8467102e)"><path style=" stroke:none;fill-rule:nonzero;fill:#000000;fill-opacity:1;" d="M 164.054688 30.746094 C 164.054688 32.59375 164.007812 34.441406 163.917969 36.285156 C 163.828125 38.128906 163.691406 39.972656 163.511719 41.808594 C 163.332031 43.648438 163.105469 45.480469 162.832031 47.304688 C 162.5625 49.132812 162.246094 50.953125 161.886719 52.761719 C 161.527344 54.574219 161.121094 56.375 160.671875 58.167969 C 160.222656 59.957031 159.730469 61.738281 159.195312 63.503906 C 158.660156 65.273438 158.082031 67.027344 157.457031 68.765625 C 156.835938 70.503906 156.171875 72.226562 155.464844 73.933594 C 154.757812 75.636719 154.011719 77.328125 153.21875 78.996094 C 152.429688 80.664062 151.601562 82.3125 150.730469 83.941406 C 149.859375 85.570312 148.949219 87.179688 148 88.761719 C 147.050781 90.347656 146.0625 91.90625 145.035156 93.441406 C 144.011719 94.976562 142.949219 96.488281 141.847656 97.96875 C 140.746094 99.453125 139.613281 100.910156 138.441406 102.335938 C 137.269531 103.765625 136.0625 105.160156 134.820312 106.53125 C 133.582031 107.898438 132.308594 109.234375 131.003906 110.542969 C 129.695312 111.847656 128.359375 113.121094 126.992188 114.359375 C 125.625 115.601562 124.226562 116.808594 122.796875 117.980469 C 121.371094 119.152344 119.914062 120.285156 118.429688 121.386719 C 116.949219 122.488281 115.4375 123.550781 113.902344 124.574219 C 112.367188 125.601562 110.808594 126.589844 109.222656 127.539062 C 107.640625 128.488281 106.03125 129.398438 104.402344 130.269531 C 102.777344 131.140625 101.125 131.96875 99.457031 132.757812 C 97.789062 133.546875 96.097656 134.296875 94.394531 135.003906 C 92.6875 135.710938 90.964844 136.375 89.226562 136.996094 C 87.488281 137.621094 85.734375 138.199219 83.964844 138.734375 C 82.199219 139.269531 80.417969 139.761719 78.628906 140.210938 C 76.835938 140.660156 75.035156 141.066406 73.222656 141.425781 C 71.414062 141.785156 69.59375 142.101562 67.765625 142.371094 C 65.941406 142.644531 64.109375 142.871094 62.269531 143.050781 C 60.433594 143.230469 58.589844 143.367188 56.746094 143.457031 C 54.902344 143.546875 53.054688 143.59375 51.210938 143.59375 C 49.363281 143.59375 47.515625 143.546875 45.671875 143.457031 C 43.828125 143.367188 41.984375 143.230469 40.148438 143.050781 C 38.308594 142.871094 36.476562 142.644531 34.652344 142.371094 C 32.824219 142.101562 31.003906 141.785156 29.195312 141.425781 C 27.382812 141.066406 25.582031 140.660156 23.789062 140.210938 C 22 139.761719 20.21875 139.269531 18.453125 138.734375 C 16.683594 138.199219 14.929688 137.621094 13.191406 136.996094 C 11.453125 136.375 9.730469 135.710938 8.023438 135.003906 C 6.320312 134.296875 4.628906 133.546875 2.960938 132.757812 C 1.292969 131.96875 -0.355469 131.140625 -1.984375 130.269531 C -3.613281 129.398438 -5.222656 128.488281 -6.804688 127.539062 C -8.390625 126.589844 -9.949219 125.601562 -11.484375 124.574219 C -13.019531 123.550781 -14.53125 122.488281 -16.011719 121.386719 C -17.496094 120.285156 -18.953125 119.152344 -20.378906 117.980469 C -21.808594 116.808594 -23.207031 115.601562 -24.574219 114.359375 C -25.941406 113.121094 -27.277344 111.847656 -28.585938 110.542969 C -29.890625 109.234375 -31.164062 107.898438 -32.402344 106.53125 C -33.644531 105.160156 -34.851562 103.765625 -36.023438 102.335938 C -37.195312 100.910156 -38.328125 99.453125 -39.429688 97.96875 C -40.53125 96.488281 -41.59375 94.976562 -42.617188 93.441406 C -43.644531 91.90625 -44.632812 90.347656 -45.582031 88.761719 C -46.53125 87.179688 -47.441406 85.570312 -48.3125 83.941406 C -49.183594 82.3125 -50.011719 80.664062 -50.800781 78.996094 C -51.59375 77.328125 -52.339844 75.636719 -53.046875 73.933594 C -53.753906 72.226562 -54.417969 70.503906 -55.039062 68.765625 C -55.664062 67.027344 -56.242188 65.273438 -56.777344 63.503906 C -57.3125 61.738281 -57.804688 59.957031 -58.253906 58.167969 C -58.703125 56.375 -59.109375 54.574219 -59.46875 52.761719 C -59.828125 50.953125 -60.144531 49.132812 -60.414062 47.304688 C -60.6875 45.480469 -60.914062 43.648438 -61.09375 41.808594 C -61.273438 39.972656 -61.410156 38.128906 -61.5 36.285156 C -61.589844 34.441406 -61.636719 32.59375 -61.636719 30.746094 C -61.636719 28.902344 -61.589844 27.054688 -61.5 25.210938 C -61.410156 23.367188 -61.273438 21.523438 -61.09375 19.6875 C -60.914062 17.847656 -60.6875 16.015625 -60.414062 14.191406 C -60.144531 12.363281 -59.828125 10.542969 -59.46875 8.734375 C -59.109375 6.921875 -58.703125 5.121094 -58.253906 3.328125 C -57.804688 1.539062 -57.3125 -0.242188 -56.777344 -2.007812 C -56.242188 -3.777344 -55.664062 -5.53125 -55.039062 -7.269531 C -54.417969 -9.007812 -53.753906 -10.730469 -53.046875 -12.4375 C -52.339844 -14.140625 -51.59375 -15.832031 -50.800781 -17.5 C -50.011719 -19.167969 -49.183594 -20.820312 -48.3125 -22.445312 C -47.441406 -24.074219 -46.53125 -25.683594 -45.582031 -27.265625 C -44.632812 -28.851562 -43.644531 -30.410156 -42.617188 -31.945312 C -41.59375 -33.480469 -40.53125 -34.992188 -39.429688 -36.472656 C -38.328125 -37.957031 -37.195312 -39.414062 -36.023438 -40.839844 C -34.851562 -42.269531 -33.644531 -43.667969 -32.402344 -45.035156 C -31.164062 -46.402344 -29.890625 -47.738281 -28.585938 -49.046875 C -27.277344 -50.351562 -25.941406 -51.625 -24.574219 -52.863281 C -23.207031 -54.105469 -21.808594 -55.3125 -20.378906 -56.484375 C -18.953125 -57.65625 -17.496094 -58.789062 -16.011719 -59.890625 C -14.53125 -60.992188 -13.019531 -62.054688 -11.484375 -63.078125 C -9.949219 -64.105469 -8.390625 -65.09375 -6.804688 -66.042969 C -5.222656 -66.992188 -3.613281 -67.902344 -1.984375 -68.773438 C -0.355469 -69.644531 1.292969 -70.472656 2.960938 -71.261719 C 4.628906 -72.054688 6.320312 -72.800781 8.023438 -73.507812 C 9.730469 -74.214844 11.453125 -74.878906 13.191406 -75.5 C 14.929688 -76.125 16.683594 -76.703125 18.453125 -77.238281 C 20.21875 -77.773438 22 -78.265625 23.789062 -78.714844 C 25.582031 -79.164062 27.382812 -79.570312 29.195312 -79.929688 C 31.003906 -80.289062 32.824219 -80.605469 34.652344 -80.875 C 36.476562 -81.148438 38.308594 -81.375 40.148438 -81.554688 C 41.984375 -81.734375 43.828125 -81.871094 45.671875 -81.960938 C 47.515625 -82.050781 49.363281 -82.097656 51.210938 -82.097656 C 53.054688 -82.097656 54.902344 -82.050781 56.746094 -81.960938 C 58.589844 -81.871094 60.433594 -81.734375 62.269531 -81.554688 C 64.109375 -81.375 65.941406 -81.148438 67.765625 -80.875 C 69.59375 -80.605469 71.414062 -80.289062 73.222656 -79.929688 C 75.035156 -79.570312 76.835938 -79.164062 78.628906 -78.714844 C 80.417969 -78.265625 82.199219 -77.773438 83.964844 -77.238281 C 85.734375 -76.703125 87.488281 -76.125 89.226562 -75.5 C 90.964844 -74.878906 92.6875 -74.214844 94.394531 -73.507812 C 96.097656 -72.800781 97.789062 -72.054688 99.457031 -71.261719 C 101.125 -70.472656 102.777344 -69.644531 104.402344 -68.773438 C 106.03125 -67.902344 107.640625 -66.992188 109.222656 -66.042969 C 110.808594 -65.09375 112.367188 -64.105469 113.902344 -63.078125 C 115.4375 -62.054688 116.949219 -60.992188 118.429688 -59.890625 C 119.914062 -58.789062 121.371094 -57.65625 122.796875 -56.484375 C 124.226562 -55.3125 125.625 -54.105469 126.992188 -52.863281 C 128.359375 -51.625 129.695312 -50.351562 131.003906 -49.046875 C 132.308594 -47.738281 133.582031 -46.402344 134.820312 -45.035156 C 136.0625 -43.667969 137.269531 -42.269531 138.441406 -40.839844 C 139.613281 -39.414062 140.746094 -37.957031 141.847656 -36.472656 C 142.949219 -34.992188 144.011719 -33.480469 145.035156 -31.945312 C 146.0625 -30.410156 147.050781 -28.851562 148 -27.265625 C 148.949219 -25.683594 149.859375 -24.074219 150.730469 -22.445312 C 151.601562 -20.820312 152.429688 -19.167969 153.21875 -17.5 C 154.011719 -15.832031 154.757812 -14.140625 155.464844 -12.4375 C 156.171875 -10.730469 156.835938 -9.007812 157.457031 -7.269531 C 158.082031 -5.53125 158.660156 -3.777344 159.195312 -2.007812 C 159.730469 -0.242188 160.222656 1.539062 160.671875 3.328125 C 161.121094 5.121094 161.527344 6.921875 161.886719 8.734375 C 162.246094 10.542969 162.5625 12.363281 162.832031 14.191406 C 163.105469 16.015625 163.332031 17.847656 163.511719 19.6875 C 163.691406 21.523438 163.828125 23.367188 163.917969 25.210938 C 164.007812 27.054688 164.054688 28.902344 164.054688 30.746094 Z M 164.054688 30.746094 "/></g><path style=" stroke:none;fill-rule:nonzero;fill:#ff3131;fill-opacity:1;" d="M 128.507812 42.933594 C 126.25 42.933594 124.558594 41.015625 124.558594 38.761719 L 124.558594 23.863281 C 124.558594 21.609375 126.25 19.6875 128.507812 19.6875 C 130.765625 19.6875 132.457031 21.609375 132.457031 23.863281 L 132.457031 38.871094 C 132.457031 41.128906 130.765625 42.933594 128.507812 42.933594 Z M 128.507812 42.933594 "/><path style=" stroke:none;fill-rule:nonzero;fill:#ff3131;fill-opacity:1;" d="M 15.664062 90.441406 C 13.292969 90.441406 11.714844 88.1875 11.714844 85.476562 L 11.714844 -22.855469 C 11.714844 -25.5625 13.292969 -27.820312 15.664062 -27.820312 C 18.03125 -27.820312 19.613281 -25.5625 19.613281 -22.855469 L 19.613281 85.589844 C 19.613281 88.300781 17.917969 90.441406 15.664062 90.441406 Z M 15.664062 90.441406 "/><path style=" stroke:none;fill-rule:nonzero;fill:#ff3131;fill-opacity:1;" d="M -1.265625 63.925781 C -3.632812 63.925781 -5.214844 62.007812 -5.214844 59.75 L -5.214844 2.988281 C -5.214844 0.617188 -3.632812 -1.1875 -1.265625 -1.1875 C 1.105469 -1.1875 2.683594 0.730469 2.683594 2.988281 L 2.683594 59.75 C 2.683594 62.007812 0.992188 63.925781 -1.265625 63.925781 Z M -1.265625 63.925781 "/><path style=" stroke:none;fill-rule:nonzero;fill:#ff3131;fill-opacity:1;" d="M 32.023438 63.925781 C 29.65625 63.925781 27.511719 62.007812 27.511719 59.75 L 27.511719 2.988281 C 27.511719 0.617188 29.65625 -1.1875 32.023438 -1.1875 C 34.394531 -1.1875 36.539062 0.730469 36.539062 2.988281 L 36.539062 59.75 C 36.539062 62.007812 34.28125 63.925781 32.023438 63.925781 Z M 32.023438 63.925781 "/><path style=" stroke:none;fill-rule:nonzero;fill:#ff3131;fill-opacity:1;" d="M 63.621094 63.925781 C 61.253906 63.925781 59.109375 62.007812 59.109375 59.75 L 59.109375 2.988281 C 59.109375 0.617188 61.253906 -1.1875 63.621094 -1.1875 C 65.992188 -1.1875 68.136719 0.730469 68.136719 2.988281 L 68.136719 59.75 C 68.136719 62.007812 65.878906 63.925781 63.621094 63.925781 Z M 63.621094 63.925781 "/><path style=" stroke:none;fill-rule:nonzero;fill:#ff3131;fill-opacity:1;" d="M 96.910156 63.925781 C 94.542969 63.925781 92.960938 62.007812 92.960938 59.75 L 92.960938 2.988281 C 92.960938 0.617188 94.542969 -1.1875 96.910156 -1.1875 C 99.28125 -1.1875 100.859375 0.730469 100.859375 2.988281 L 100.859375 59.75 C 100.859375 62.007812 99.167969 63.925781 96.910156 63.925781 Z M 96.910156 63.925781 "/><path style=" stroke:none;fill-rule:nonzero;fill:#ff3131;fill-opacity:1;" d="M 80.550781 49.140625 C 78.179688 49.140625 76.035156 47.222656 76.035156 44.964844 L 76.035156 17.65625 C 76.035156 15.289062 78.179688 13.484375 80.550781 13.484375 C 82.917969 13.484375 85.0625 15.402344 85.0625 17.65625 L 85.0625 44.964844 C 85.0625 47.335938 82.804688 49.140625 80.550781 49.140625 Z M 80.550781 49.140625 "/><path style=" stroke:none;fill-rule:nonzero;fill:#ff3131;fill-opacity:1;" d="M 113.839844 49.027344 C 111.46875 49.027344 109.890625 47.109375 109.890625 44.855469 L 109.890625 17.433594 C 109.890625 15.0625 111.46875 13.257812 113.839844 13.257812 C 116.207031 13.257812 117.789062 15.175781 117.789062 17.433594 L 117.789062 44.742188 C 117.789062 47.109375 116.09375 49.027344 113.839844 49.027344 Z M 113.839844 49.027344 "/><path style=" stroke:none;fill-rule:nonzero;fill:#ff3131;fill-opacity:1;" d="M 48.386719 49.140625 C 46.019531 49.140625 44.4375 47.222656 44.4375 44.964844 L 44.4375 17.65625 C 44.4375 15.289062 46.019531 13.484375 48.386719 13.484375 C 50.757812 13.484375 52.335938 15.402344 52.335938 17.65625 L 52.335938 44.964844 C 52.335938 47.335938 50.644531 49.140625 48.386719 49.140625 Z M 48.386719 49.140625 "/></g><mask id="185060d04e"><g filter="url(#7d6e70319e)"><rect x="0" width="375" y="0" height="374.999991" style="fill:#000000;fill-opacity:0.2;stroke:none;"/></g></mask></g><g mask="url(#47bae300b3)" transform="matrix(1,0,0,1,274,264)"><g clip-path="url(#1bee976ad9)"><g clip-rule="nonzero" clip-path="url(#9b19db3e61)"><path style=" stroke:none;fill-rule:evenodd;fill:#ff3131;fill-opacity:1;" d="M 103.746094 22.144531 C 102.960938 21.378906 102.113281 20.699219 101.195312 20.101562 C 100.28125 19.503906 99.316406 18.996094 98.300781 18.585938 C 97.289062 18.171875 96.246094 17.863281 95.171875 17.652344 C 94.097656 17.441406 93.011719 17.339844 91.917969 17.339844 C 90.824219 17.339844 89.742188 17.441406 88.667969 17.652344 C 87.59375 17.863281 86.550781 18.171875 85.535156 18.585938 C 84.523438 18.996094 83.558594 19.503906 82.640625 20.101562 C 81.726562 20.699219 80.875 21.378906 80.089844 22.144531 L 17.015625 84 C 16.753906 84.253906 16.46875 84.480469 16.164062 84.679688 C 15.859375 84.878906 15.539062 85.050781 15.199219 85.1875 C 14.863281 85.324219 14.515625 85.425781 14.15625 85.496094 C 13.796875 85.566406 13.4375 85.601562 13.074219 85.601562 C 12.707031 85.601562 12.347656 85.566406 11.988281 85.496094 C 11.632812 85.425781 11.285156 85.324219 10.945312 85.1875 C 10.609375 85.050781 10.285156 84.878906 9.980469 84.679688 C 9.675781 84.480469 9.394531 84.253906 9.132812 84 C 8.875 83.75 8.640625 83.476562 8.4375 83.179688 C 8.234375 82.878906 8.0625 82.566406 7.921875 82.234375 C 7.785156 81.902344 7.675781 81.558594 7.605469 81.207031 C 7.535156 80.851562 7.5 80.496094 7.5 80.136719 C 7.5 79.773438 7.535156 79.417969 7.605469 79.066406 C 7.675781 78.710938 7.785156 78.367188 7.921875 78.035156 C 8.0625 77.703125 8.234375 77.390625 8.4375 77.09375 C 8.640625 76.792969 8.875 76.519531 9.132812 76.269531 L 72.207031 14.410156 C 72.859375 13.777344 73.539062 13.175781 74.25 12.605469 C 74.960938 12.039062 75.695312 11.503906 76.457031 11.007812 C 77.21875 10.511719 78.003906 10.050781 78.808594 9.628906 C 79.613281 9.207031 80.4375 8.824219 81.28125 8.480469 C 82.125 8.140625 82.980469 7.839844 83.851562 7.578125 C 84.722656 7.320312 85.605469 7.101562 86.5 6.929688 C 87.390625 6.753906 88.292969 6.621094 89.195312 6.535156 C 90.101562 6.445312 91.007812 6.402344 91.917969 6.402344 C 92.828125 6.402344 93.734375 6.445312 94.640625 6.535156 C 95.546875 6.621094 96.445312 6.753906 97.339844 6.929688 C 98.230469 7.101562 99.113281 7.320312 99.984375 7.578125 C 100.855469 7.839844 101.714844 8.140625 102.554688 8.480469 C 103.398438 8.824219 104.222656 9.207031 105.027344 9.628906 C 105.835938 10.050781 106.617188 10.511719 107.378906 11.007812 C 108.140625 11.503906 108.875 12.039062 109.585938 12.605469 C 110.296875 13.175781 110.976562 13.777344 111.628906 14.410156 C 113.15625 15.894531 114.488281 17.539062 115.625 19.339844 C 116.761719 21.136719 117.675781 23.046875 118.359375 25.0625 C 119.046875 27.078125 119.488281 29.144531 119.683594 31.265625 C 119.878906 33.386719 119.824219 35.5 119.519531 37.609375 C 121.65625 37.304688 123.796875 37.246094 125.945312 37.433594 C 128.09375 37.621094 130.191406 38.050781 132.242188 38.722656 C 134.292969 39.394531 136.242188 40.285156 138.085938 41.402344 C 139.929688 42.523438 141.625 43.832031 143.167969 45.339844 L 143.496094 45.667969 C 144.140625 46.292969 144.75 46.953125 145.328125 47.640625 C 145.910156 48.328125 146.453125 49.042969 146.957031 49.785156 C 147.464844 50.527344 147.933594 51.292969 148.363281 52.082031 C 148.796875 52.871094 149.1875 53.679688 149.535156 54.507812 C 149.886719 55.335938 150.191406 56.175781 150.457031 57.035156 C 150.722656 57.894531 150.945312 58.765625 151.125 59.644531 C 151.300781 60.527344 151.4375 61.414062 151.527344 62.308594 C 151.617188 63.203125 151.660156 64.097656 151.660156 65 C 151.660156 65.898438 151.617188 66.792969 151.527344 67.6875 C 151.4375 68.582031 151.300781 69.46875 151.125 70.351562 C 150.945312 71.230469 150.722656 72.101562 150.457031 72.960938 C 150.191406 73.820312 149.886719 74.664062 149.535156 75.492188 C 149.1875 76.320312 148.796875 77.125 148.363281 77.914062 C 147.933594 78.703125 147.464844 79.46875 146.957031 80.210938 C 146.453125 80.953125 145.910156 81.667969 145.328125 82.355469 C 144.75 83.046875 144.140625 83.703125 143.496094 84.328125 L 86.449219 140.269531 C 86.273438 140.4375 86.140625 140.636719 86.042969 140.859375 C 85.949219 141.082031 85.902344 141.316406 85.902344 141.558594 C 85.902344 141.800781 85.949219 142.03125 86.042969 142.257812 C 86.140625 142.480469 86.273438 142.675781 86.449219 142.84375 L 98.164062 154.339844 C 98.421875 154.589844 98.652344 154.863281 98.855469 155.160156 C 99.058594 155.460938 99.230469 155.773438 99.371094 156.105469 C 99.511719 156.4375 99.617188 156.78125 99.6875 157.132812 C 99.761719 157.488281 99.796875 157.84375 99.796875 158.203125 C 99.796875 158.566406 99.761719 158.921875 99.6875 159.273438 C 99.617188 159.628906 99.511719 159.972656 99.371094 160.304688 C 99.230469 160.636719 99.058594 160.949219 98.855469 161.246094 C 98.652344 161.542969 98.421875 161.820312 98.164062 162.070312 C 97.902344 162.324219 97.617188 162.550781 97.3125 162.75 C 97.007812 162.949219 96.6875 163.117188 96.347656 163.253906 C 96.011719 163.390625 95.664062 163.496094 95.304688 163.566406 C 94.949219 163.636719 94.585938 163.671875 94.222656 163.671875 C 93.859375 163.671875 93.496094 163.636719 93.136719 163.566406 C 92.78125 163.496094 92.433594 163.390625 92.09375 163.253906 C 91.757812 163.117188 91.4375 162.949219 91.128906 162.75 C 90.824219 162.550781 90.542969 162.324219 90.28125 162.070312 L 78.5625 150.582031 C 77.960938 149.996094 77.421875 149.355469 76.945312 148.664062 C 76.472656 147.96875 76.070312 147.234375 75.742188 146.457031 C 75.414062 145.683594 75.167969 144.882812 75 144.058594 C 74.835938 143.234375 74.75 142.402344 74.75 141.558594 C 74.75 140.71875 74.835938 139.886719 75 139.0625 C 75.167969 138.238281 75.414062 137.4375 75.742188 136.664062 C 76.070312 135.886719 76.472656 135.152344 76.945312 134.457031 C 77.421875 133.765625 77.960938 133.125 78.5625 132.539062 L 135.613281 76.589844 C 136 76.214844 136.367188 75.820312 136.710938 75.40625 C 137.058594 74.992188 137.386719 74.566406 137.6875 74.121094 C 137.992188 73.675781 138.273438 73.214844 138.53125 72.742188 C 138.789062 72.269531 139.023438 71.785156 139.234375 71.285156 C 139.445312 70.789062 139.628906 70.285156 139.789062 69.769531 C 139.945312 69.253906 140.078125 68.730469 140.1875 68.203125 C 140.292969 67.675781 140.375 67.140625 140.429688 66.605469 C 140.480469 66.070312 140.507812 65.53125 140.507812 64.992188 C 140.507812 64.453125 140.480469 63.914062 140.429688 63.378906 C 140.375 62.839844 140.292969 62.308594 140.1875 61.78125 C 140.078125 61.253906 139.945312 60.730469 139.789062 60.214844 C 139.628906 59.699219 139.445312 59.195312 139.234375 58.695312 C 139.023438 58.199219 138.789062 57.714844 138.53125 57.242188 C 138.273438 56.769531 137.992188 56.308594 137.6875 55.863281 C 137.386719 55.417969 137.058594 54.988281 136.710938 54.578125 C 136.367188 54.164062 136 53.769531 135.613281 53.394531 L 135.285156 53.074219 C 134.5 52.308594 133.652344 51.628906 132.738281 51.03125 C 131.824219 50.433594 130.859375 49.929688 129.847656 49.515625 C 128.835938 49.105469 127.792969 48.792969 126.71875 48.582031 C 125.648438 48.375 124.5625 48.265625 123.472656 48.265625 C 122.378906 48.265625 121.296875 48.371094 120.222656 48.578125 C 119.148438 48.785156 118.105469 49.097656 117.09375 49.507812 C 116.078125 49.917969 115.117188 50.417969 114.199219 51.015625 C 113.285156 51.613281 112.433594 52.292969 111.648438 53.050781 L 64.652344 99.144531 L 64.640625 99.15625 L 63.996094 99.792969 C 63.734375 100.046875 63.453125 100.273438 63.148438 100.476562 C 62.839844 100.675781 62.519531 100.84375 62.183594 100.980469 C 61.84375 101.117188 61.496094 101.222656 61.136719 101.292969 C 60.78125 101.363281 60.417969 101.394531 60.054688 101.394531 C 59.6875 101.394531 59.328125 101.363281 58.96875 101.292969 C 58.609375 101.222656 58.261719 101.117188 57.925781 100.980469 C 57.585938 100.84375 57.265625 100.675781 56.957031 100.476562 C 56.652344 100.273438 56.371094 100.046875 56.109375 99.792969 C 55.851562 99.542969 55.617188 99.269531 55.414062 98.96875 C 55.210938 98.671875 55.039062 98.359375 54.898438 98.027344 C 54.761719 97.695312 54.652344 97.351562 54.582031 96.996094 C 54.511719 96.644531 54.476562 96.289062 54.476562 95.925781 C 54.476562 95.566406 54.511719 95.210938 54.582031 94.855469 C 54.652344 94.503906 54.761719 94.160156 54.898438 93.828125 C 55.039062 93.496094 55.210938 93.183594 55.414062 92.882812 C 55.617188 92.585938 55.851562 92.3125 56.109375 92.0625 L 103.765625 45.320312 C 104.152344 44.945312 104.515625 44.550781 104.863281 44.136719 C 105.210938 43.722656 105.535156 43.292969 105.835938 42.847656 C 106.140625 42.402344 106.421875 41.945312 106.675781 41.472656 C 106.933594 41 107.167969 40.511719 107.375 40.015625 C 107.585938 39.519531 107.769531 39.015625 107.925781 38.5 C 108.085938 37.984375 108.21875 37.464844 108.324219 36.9375 C 108.429688 36.40625 108.511719 35.875 108.5625 35.339844 C 108.617188 34.804688 108.644531 34.265625 108.640625 33.726562 C 108.640625 33.1875 108.613281 32.652344 108.5625 32.117188 C 108.507812 31.582031 108.425781 31.046875 108.320312 30.519531 C 108.210938 29.992188 108.078125 29.472656 107.917969 28.957031 C 107.761719 28.441406 107.574219 27.9375 107.367188 27.441406 C 107.15625 26.945312 106.921875 26.460938 106.664062 25.988281 C 106.40625 25.515625 106.125 25.054688 105.820312 24.609375 C 105.515625 24.167969 105.191406 23.738281 104.84375 23.324219 C 104.5 22.914062 104.132812 22.519531 103.746094 22.144531 Z M 103.746094 22.144531 "/></g><path style=" stroke:none;fill-rule:evenodd;fill:#ff3131;fill-opacity:1;" d="M 95.863281 37.609375 C 96.121094 37.355469 96.351562 37.082031 96.554688 36.785156 C 96.757812 36.488281 96.929688 36.171875 97.070312 35.839844 C 97.210938 35.507812 97.316406 35.164062 97.390625 34.8125 C 97.460938 34.460938 97.496094 34.101562 97.496094 33.742188 C 97.496094 33.382812 97.460938 33.023438 97.390625 32.671875 C 97.316406 32.316406 97.210938 31.976562 97.070312 31.644531 C 96.929688 31.3125 96.757812 30.996094 96.554688 30.699219 C 96.351562 30.402344 96.121094 30.128906 95.863281 29.875 C 95.601562 29.621094 95.320312 29.394531 95.011719 29.195312 C 94.707031 28.996094 94.386719 28.824219 94.046875 28.6875 C 93.710938 28.550781 93.363281 28.449219 93.003906 28.378906 C 92.644531 28.308594 92.285156 28.273438 91.917969 28.273438 C 91.554688 28.273438 91.191406 28.308594 90.835938 28.378906 C 90.476562 28.449219 90.128906 28.550781 89.789062 28.6875 C 89.453125 28.824219 89.128906 28.996094 88.824219 29.195312 C 88.519531 29.394531 88.234375 29.621094 87.972656 29.875 L 41.324219 75.625 C 40.679688 76.253906 40.070312 76.910156 39.492188 77.597656 C 38.910156 78.285156 38.371094 79 37.863281 79.742188 C 37.355469 80.484375 36.886719 81.25 36.457031 82.039062 C 36.023438 82.828125 35.632812 83.636719 35.285156 84.464844 C 34.933594 85.292969 34.628906 86.136719 34.363281 86.996094 C 34.097656 87.855469 33.875 88.722656 33.695312 89.605469 C 33.519531 90.484375 33.382812 91.375 33.292969 92.269531 C 33.203125 93.160156 33.160156 94.058594 33.160156 94.957031 C 33.160156 95.855469 33.203125 96.753906 33.292969 97.648438 C 33.382812 98.542969 33.519531 99.429688 33.695312 100.308594 C 33.875 101.191406 34.097656 102.0625 34.363281 102.917969 C 34.628906 103.777344 34.933594 104.621094 35.285156 105.449219 C 35.632812 106.277344 36.023438 107.085938 36.457031 107.875 C 36.886719 108.664062 37.355469 109.429688 37.863281 110.171875 C 38.371094 110.914062 38.910156 111.628906 39.492188 112.316406 C 40.070312 113.003906 40.679688 113.660156 41.324219 114.289062 C 41.976562 114.921875 42.65625 115.523438 43.367188 116.09375 C 44.078125 116.660156 44.8125 117.191406 45.574219 117.691406 C 46.335938 118.1875 47.121094 118.648438 47.925781 119.070312 C 48.730469 119.492188 49.554688 119.875 50.398438 120.214844 C 51.242188 120.558594 52.097656 120.859375 52.96875 121.117188 C 53.84375 121.378906 54.722656 121.59375 55.617188 121.769531 C 56.507812 121.941406 57.410156 122.074219 58.3125 122.160156 C 59.21875 122.25 60.125 122.292969 61.035156 122.292969 C 61.945312 122.292969 62.851562 122.25 63.757812 122.160156 C 64.664062 122.074219 65.5625 121.941406 66.453125 121.769531 C 67.347656 121.59375 68.230469 121.378906 69.101562 121.117188 C 69.972656 120.859375 70.832031 120.558594 71.671875 120.214844 C 72.515625 119.875 73.339844 119.492188 74.144531 119.070312 C 74.953125 118.648438 75.734375 118.1875 76.496094 117.691406 C 77.257812 117.191406 77.992188 116.660156 78.703125 116.09375 C 79.414062 115.523438 80.09375 114.921875 80.746094 114.289062 L 127.402344 68.535156 C 127.660156 68.285156 127.890625 68.011719 128.09375 67.714844 C 128.296875 67.414062 128.46875 67.101562 128.609375 66.769531 C 128.75 66.4375 128.855469 66.09375 128.925781 65.742188 C 129 65.386719 129.035156 65.03125 129.035156 64.671875 C 129.035156 64.308594 129 63.953125 128.925781 63.601562 C 128.855469 63.246094 128.75 62.90625 128.609375 62.574219 C 128.46875 62.242188 128.296875 61.925781 128.09375 61.628906 C 127.890625 61.332031 127.660156 61.054688 127.402344 60.804688 C 127.140625 60.550781 126.855469 60.324219 126.550781 60.125 C 126.246094 59.921875 125.925781 59.753906 125.585938 59.617188 C 125.25 59.480469 124.898438 59.375 124.542969 59.304688 C 124.183594 59.238281 123.820312 59.203125 123.457031 59.203125 C 123.09375 59.203125 122.730469 59.238281 122.371094 59.304688 C 122.015625 59.375 121.667969 59.480469 121.328125 59.617188 C 120.988281 59.753906 120.667969 59.921875 120.363281 60.125 C 120.058594 60.324219 119.773438 60.550781 119.511719 60.804688 L 72.863281 106.554688 C 72.078125 107.320312 71.230469 108 70.3125 108.597656 C 69.398438 109.195312 68.433594 109.703125 67.417969 110.113281 C 66.40625 110.527344 65.363281 110.835938 64.289062 111.046875 C 63.214844 111.257812 62.128906 111.359375 61.035156 111.359375 C 59.941406 111.359375 58.859375 111.257812 57.785156 111.046875 C 56.710938 110.835938 55.667969 110.527344 54.652344 110.113281 C 53.640625 109.703125 52.675781 109.195312 51.757812 108.597656 C 50.84375 108 49.992188 107.320312 49.207031 106.554688 C 48.820312 106.179688 48.453125 105.785156 48.109375 105.371094 C 47.761719 104.960938 47.433594 104.53125 47.132812 104.085938 C 46.828125 103.640625 46.546875 103.179688 46.289062 102.707031 C 46.03125 102.234375 45.796875 101.75 45.585938 101.253906 C 45.375 100.753906 45.191406 100.25 45.03125 99.734375 C 44.875 99.21875 44.742188 98.695312 44.632812 98.167969 C 44.527344 97.640625 44.445312 97.109375 44.390625 96.570312 C 44.339844 96.035156 44.3125 95.496094 44.3125 94.957031 C 44.3125 94.417969 44.339844 93.878906 44.390625 93.34375 C 44.445312 92.808594 44.527344 92.273438 44.632812 91.746094 C 44.742188 91.21875 44.875 90.695312 45.03125 90.179688 C 45.191406 89.664062 45.375 89.160156 45.585938 88.664062 C 45.796875 88.164062 46.03125 87.679688 46.289062 87.207031 C 46.546875 86.734375 46.828125 86.273438 47.132812 85.828125 C 47.433594 85.382812 47.761719 84.957031 48.109375 84.542969 C 48.453125 84.128906 48.820312 83.734375 49.207031 83.359375 Z M 95.863281 37.609375 "/></g><mask id="47bae300b3"><g filter="url(#7d6e70319e)"><rect x="0" width="375" y="0" height="374.999991" style="fill:#000000;fill-opacity:0.2;stroke:none;"/></g></mask></g><g clip-rule="nonzero" clip-path="url(#7afc88260d)"><path style=" stroke:none;fill-rule:nonzero;fill:#ffffff;fill-opacity:1;" d="M 191.113281 81.863281 C 157.105469 81.863281 129.152344 107.773438 125.910156 140.929688 L 125.589844 152.640625 L 113.917969 173.433594 C 112.519531 177.316406 114.363281 181.621094 118.136719 183.289062 L 124.691406 186.183594 C 126.914062 187.164062 128.347656 189.363281 128.347656 191.792969 L 128.347656 207.664062 C 128.347656 215.886719 135.074219 222.613281 143.300781 222.613281 L 157.726562 218.753906 C 160.851562 218.753906 163.382812 221.285156 163.382812 224.410156 L 163.382812 237.398438 C 163.382812 241.328125 167.605469 243.8125 171.042969 241.90625 L 226.113281 215.609375 C 229.339844 213.816406 231.339844 210.417969 231.339844 206.730469 L 231.339844 199.109375 C 253.679688 185.128906 256.625 159.894531 256.640625 147.460938 C 256.679688 111.335938 227.238281 81.859375 191.113281 81.863281 Z M 191.113281 195.65625 C 165.328125 195.65625 144.421875 174.753906 144.421875 148.96875 C 144.421875 123.183594 165.328125 102.277344 191.113281 102.277344 C 216.898438 102.277344 237.800781 123.183594 237.800781 148.96875 C 237.800781 174.753906 216.898438 195.65625 191.113281 195.65625 Z M 191.113281 195.65625 "/></g><path style=" stroke:none;fill-rule:nonzero;fill:#545454;fill-opacity:1;" d="M 125.597656 152.4375 L 125.589844 152.640625 L 123.054688 157.15625 L 145.136719 157.15625 C 144.863281 155.609375 144.699219 154.03125 144.582031 152.4375 Z M 125.597656 152.4375 "/><path style=" stroke:none;fill-rule:nonzero;fill:#ffffff;fill-opacity:1;" d="M 158.078125 181.960938 L 158.09375 181.976562 C 158.085938 181.972656 158.082031 181.96875 158.078125 181.960938 Z M 158.078125 181.960938 "/><path style=" stroke:none;fill-rule:nonzero;fill:#545454;fill-opacity:1;" d="M 224.136719 115.933594 L 224.125 115.949219 C 232.578125 124.398438 237.804688 136.074219 237.804688 148.96875 C 237.804688 174.753906 216.898438 195.65625 191.113281 195.65625 C 178.222656 195.65625 166.554688 190.433594 158.105469 181.988281 L 202.839844 226.722656 L 226.117188 215.609375 C 229.34375 213.816406 231.34375 210.417969 231.34375 206.726562 L 231.34375 199.105469 C 253.117188 185.480469 256.464844 161.164062 256.632812 148.425781 Z M 224.136719 115.933594 "/><g clip-rule="nonzero" clip-path="url(#8d9a920662)"><path style=" stroke:none;fill-rule:nonzero;fill:#ff3131;fill-opacity:1;" d="M 183.050781 178.796875 C 180.960938 178.796875 179.144531 177.355469 178.664062 175.320312 L 171.042969 142.847656 L 167.28125 150.023438 C 166.503906 151.507812 164.96875 152.4375 163.292969 152.4375 L 123.835938 152.4375 C 121.347656 152.4375 119.332031 150.421875 119.332031 147.933594 C 119.332031 145.445312 121.347656 143.429688 123.835938 143.429688 L 160.570312 143.429688 L 168.675781 127.960938 C 169.550781 126.292969 171.367188 125.347656 173.234375 125.582031 C 175.097656 125.816406 176.621094 127.1875 177.050781 129.019531 L 183.046875 154.566406 L 191.367188 119.054688 C 191.832031 117.0625 193.589844 115.632812 195.636719 115.582031 C 197.667969 115.535156 199.511719 116.863281 200.078125 118.832031 L 209.585938 151.769531 L 213.5625 145.46875 C 214.386719 144.164062 215.824219 143.371094 217.371094 143.371094 L 257.964844 143.371094 C 260.453125 143.371094 262.46875 145.386719 262.46875 147.875 C 262.46875 150.363281 260.453125 152.378906 257.964844 152.378906 L 219.847656 152.378906 L 211.84375 165.058594 C 210.898438 166.558594 209.15625 167.363281 207.402344 167.113281 C 205.648438 166.863281 204.203125 165.605469 203.710938 163.902344 L 196.203125 137.890625 L 187.433594 175.316406 C 186.957031 177.355469 185.140625 178.796875 183.050781 178.796875 Z M 183.050781 178.796875 "/></g><g mask="url(#7e07e83b12)" transform="matrix(1,0,0,1,132,252)"><g clip-path="url(#479c3e0888)"><g style="fill:#ffffff;fill-opacity:1;"><g transform="translate(0.105465, 29.290001)"><path style="stroke:none" d="M 4.0625 0.203125 C 3.738281 -0.128906 3.351562 -0.476562 2.90625 -0.84375 C 2.457031 -1.21875 2.039062 -1.613281 1.65625 -2.03125 C 1.28125 -2.457031 0.957031 -2.90625 0.6875 -3.375 C 0.425781 -3.84375 0.296875 -4.347656 0.296875 -4.890625 C 0.296875 -5.140625 0.335938 -5.394531 0.421875 -5.65625 C 0.515625 -5.925781 0.640625 -6.164062 0.796875 -6.375 C 0.953125 -6.59375 1.140625 -6.769531 1.359375 -6.90625 C 1.585938 -7.050781 1.835938 -7.125 2.109375 -7.125 C 2.472656 -7.125 2.765625 -7 2.984375 -6.75 C 3.210938 -6.507812 3.421875 -6.210938 3.609375 -5.859375 C 3.804688 -5.503906 4.019531 -5.109375 4.25 -4.671875 C 4.488281 -4.234375 4.800781 -3.832031 5.1875 -3.46875 C 5.582031 -3.113281 6.085938 -2.8125 6.703125 -2.5625 C 7.316406 -2.320312 8.113281 -2.203125 9.09375 -2.203125 C 9.539062 -2.203125 10.054688 -2.269531 10.640625 -2.40625 C 11.234375 -2.539062 11.796875 -2.75 12.328125 -3.03125 C 12.867188 -3.3125 13.328125 -3.65625 13.703125 -4.0625 C 14.085938 -4.476562 14.28125 -4.960938 14.28125 -5.515625 C 14.28125 -6.222656 14.070312 -6.851562 13.65625 -7.40625 C 13.238281 -7.957031 12.773438 -8.445312 12.265625 -8.875 C 11.734375 -9.320312 11.078125 -9.679688 10.296875 -9.953125 C 9.515625 -10.234375 8.6875 -10.488281 7.8125 -10.71875 C 6.945312 -10.957031 6.078125 -11.203125 5.203125 -11.453125 C 4.335938 -11.710938 3.554688 -12.039062 2.859375 -12.4375 C 2.171875 -12.84375 1.609375 -13.347656 1.171875 -13.953125 C 0.734375 -14.566406 0.515625 -15.351562 0.515625 -16.3125 C 0.515625 -17.476562 0.789062 -18.507812 1.34375 -19.40625 C 1.894531 -20.300781 2.597656 -21.046875 3.453125 -21.640625 C 4.304688 -22.242188 5.257812 -22.703125 6.3125 -23.015625 C 7.363281 -23.328125 8.398438 -23.484375 9.421875 -23.484375 C 10.179688 -23.484375 10.921875 -23.367188 11.640625 -23.140625 C 12.367188 -22.921875 13.050781 -22.609375 13.6875 -22.203125 C 14.332031 -21.804688 14.925781 -21.34375 15.46875 -20.8125 C 16.007812 -20.28125 16.492188 -19.695312 16.921875 -19.0625 C 16.941406 -19.019531 16.988281 -18.9375 17.0625 -18.8125 C 17.144531 -18.695312 17.21875 -18.566406 17.28125 -18.421875 C 17.351562 -18.273438 17.414062 -18.140625 17.46875 -18.015625 C 17.53125 -17.898438 17.566406 -17.820312 17.578125 -17.78125 C 17.585938 -17.738281 17.597656 -17.691406 17.609375 -17.640625 C 17.617188 -17.585938 17.625 -17.539062 17.625 -17.5 C 17.625 -17.113281 17.507812 -16.722656 17.28125 -16.328125 C 17.0625 -15.929688 16.726562 -15.734375 16.28125 -15.734375 C 15.832031 -15.734375 15.5 -15.78125 15.28125 -15.875 C 15.0625 -15.976562 14.875 -16.113281 14.71875 -16.28125 C 14.570312 -16.445312 14.4375 -16.648438 14.3125 -16.890625 C 14.195312 -17.140625 14.035156 -17.414062 13.828125 -17.71875 C 13.640625 -18.007812 13.390625 -18.300781 13.078125 -18.59375 C 12.765625 -18.882812 12.421875 -19.144531 12.046875 -19.375 C 11.679688 -19.613281 11.300781 -19.804688 10.90625 -19.953125 C 10.519531 -20.097656 10.140625 -20.171875 9.765625 -20.171875 C 9.273438 -20.171875 8.71875 -20.101562 8.09375 -19.96875 C 7.46875 -19.832031 6.875 -19.625 6.3125 -19.34375 C 5.75 -19.070312 5.273438 -18.707031 4.890625 -18.25 C 4.503906 -17.789062 4.3125 -17.238281 4.3125 -16.59375 C 4.3125 -16.101562 4.457031 -15.6875 4.75 -15.34375 C 5.050781 -15.007812 5.4375 -14.722656 5.90625 -14.484375 C 6.375 -14.253906 6.898438 -14.066406 7.484375 -13.921875 C 8.066406 -13.785156 8.644531 -13.660156 9.21875 -13.546875 C 9.800781 -13.429688 10.34375 -13.316406 10.84375 -13.203125 C 11.34375 -13.097656 11.753906 -12.976562 12.078125 -12.84375 C 12.804688 -12.507812 13.53125 -12.097656 14.25 -11.609375 C 14.96875 -11.117188 15.609375 -10.554688 16.171875 -9.921875 C 16.734375 -9.285156 17.1875 -8.585938 17.53125 -7.828125 C 17.875 -7.078125 18.046875 -6.265625 18.046875 -5.390625 C 18.046875 -4.804688 17.878906 -4.265625 17.546875 -3.765625 C 17.210938 -3.273438 16.859375 -2.835938 16.484375 -2.453125 C 15.410156 -1.304688 14.300781 -0.460938 13.15625 0.078125 C 12.007812 0.617188 10.644531 0.890625 9.0625 0.890625 C 8.21875 0.890625 7.375 0.84375 6.53125 0.75 C 5.695312 0.65625 4.875 0.472656 4.0625 0.203125 Z M 4.0625 0.203125 "/></g></g><g style="fill:#ffffff;fill-opacity:1;"><g transform="translate(18.493853, 29.290001)"><path style="stroke:none" d="M 1.671875 -5.515625 C 1.347656 -5.984375 1.097656 -6.445312 0.921875 -6.90625 C 0.753906 -7.363281 0.617188 -7.820312 0.515625 -8.28125 C 0.410156 -8.738281 0.347656 -9.210938 0.328125 -9.703125 C 0.304688 -10.191406 0.296875 -10.710938 0.296875 -11.265625 C 0.296875 -12.960938 0.582031 -14.5625 1.15625 -16.0625 C 1.738281 -17.570312 2.550781 -18.890625 3.59375 -20.015625 C 4.644531 -21.140625 5.898438 -22.03125 7.359375 -22.6875 C 8.828125 -23.351562 10.441406 -23.6875 12.203125 -23.6875 C 13.734375 -23.6875 15.148438 -23.320312 16.453125 -22.59375 C 17.765625 -21.875 18.898438 -20.925781 19.859375 -19.75 C 20.816406 -18.582031 21.566406 -17.269531 22.109375 -15.8125 C 22.660156 -14.351562 22.9375 -12.882812 22.9375 -11.40625 C 22.9375 -10.488281 22.785156 -9.617188 22.484375 -8.796875 C 22.179688 -7.972656 21.804688 -7.171875 21.359375 -6.390625 C 21.253906 -6.273438 21.054688 -6.066406 20.765625 -5.765625 C 20.484375 -5.472656 20.171875 -5.160156 19.828125 -4.828125 C 19.492188 -4.503906 19.179688 -4.191406 18.890625 -3.890625 C 18.597656 -3.597656 18.390625 -3.394531 18.265625 -3.28125 C 17.648438 -2.726562 17.035156 -2.273438 16.421875 -1.921875 C 15.816406 -1.578125 15.179688 -1.304688 14.515625 -1.109375 C 13.847656 -0.921875 13.148438 -0.796875 12.421875 -0.734375 C 11.703125 -0.671875 10.9375 -0.640625 10.125 -0.640625 C 9.144531 -0.640625 8.273438 -0.757812 7.515625 -1 C 6.765625 -1.25 6.0625 -1.585938 5.40625 -2.015625 C 4.757812 -2.453125 4.140625 -2.960938 3.546875 -3.546875 C 2.953125 -4.140625 2.328125 -4.796875 1.671875 -5.515625 Z M 3.875 -12.21875 C 3.875 -11.8125 3.867188 -11.382812 3.859375 -10.9375 L 3.859375 -10.625 C 3.859375 -10.28125 3.867188 -9.953125 3.890625 -9.640625 C 3.921875 -9.210938 4.003906 -8.796875 4.140625 -8.390625 C 4.273438 -7.992188 4.472656 -7.625 4.734375 -7.28125 C 4.773438 -7.21875 4.898438 -7.078125 5.109375 -6.859375 C 5.328125 -6.648438 5.5625 -6.414062 5.8125 -6.15625 C 6.070312 -5.90625 6.332031 -5.65625 6.59375 -5.40625 C 6.851562 -5.164062 7.050781 -4.976562 7.1875 -4.84375 C 7.269531 -4.78125 7.390625 -4.691406 7.546875 -4.578125 C 7.710938 -4.460938 7.890625 -4.363281 8.078125 -4.28125 C 8.265625 -4.195312 8.4375 -4.117188 8.59375 -4.046875 C 8.75 -3.984375 8.867188 -3.953125 8.953125 -3.953125 L 12.9375 -3.953125 C 13.613281 -3.953125 14.328125 -4.21875 15.078125 -4.75 C 15.835938 -5.28125 16.535156 -5.929688 17.171875 -6.703125 C 17.804688 -7.472656 18.332031 -8.289062 18.75 -9.15625 C 19.175781 -10.03125 19.390625 -10.800781 19.390625 -11.46875 C 19.390625 -12.1875 19.300781 -12.910156 19.125 -13.640625 C 18.945312 -14.378906 18.691406 -15.082031 18.359375 -15.75 C 18.023438 -16.425781 17.625 -17.066406 17.15625 -17.671875 C 16.6875 -18.273438 16.171875 -18.796875 15.609375 -19.234375 C 15.015625 -19.410156 14.347656 -19.644531 13.609375 -19.9375 C 12.878906 -20.226562 12.164062 -20.375 11.46875 -20.375 C 10.488281 -20.375 9.539062 -20.128906 8.625 -19.640625 C 7.707031 -19.148438 6.894531 -18.515625 6.1875 -17.734375 C 5.488281 -16.953125 4.925781 -16.078125 4.5 -15.109375 C 4.082031 -14.140625 3.875 -13.175781 3.875 -12.21875 Z M 3.875 -12.21875 "/></g></g><g style="fill:#ffffff;fill-opacity:1;"><g transform="translate(41.765126, 29.290001)"><path style="stroke:none" d="M 0.328125 -2.203125 C 0.878906 -3.742188 1.484375 -5.25 2.140625 -6.71875 C 2.804688 -8.195312 3.472656 -9.664062 4.140625 -11.125 C 4.804688 -12.582031 5.457031 -14.054688 6.09375 -15.546875 C 6.738281 -17.046875 7.328125 -18.578125 7.859375 -20.140625 C 7.898438 -20.429688 7.972656 -20.742188 8.078125 -21.078125 C 8.191406 -21.410156 8.335938 -21.71875 8.515625 -22 C 8.691406 -22.289062 8.910156 -22.53125 9.171875 -22.71875 C 9.429688 -22.914062 9.726562 -23.015625 10.0625 -23.015625 C 10.570312 -23.015625 10.988281 -22.867188 11.3125 -22.578125 C 11.632812 -22.296875 11.890625 -21.929688 12.078125 -21.484375 C 12.179688 -20.804688 12.285156 -20.160156 12.390625 -19.546875 C 12.492188 -18.941406 12.609375 -18.34375 12.734375 -17.75 C 12.867188 -17.15625 13.023438 -16.5625 13.203125 -15.96875 C 13.378906 -15.382812 13.585938 -14.773438 13.828125 -14.140625 C 13.953125 -13.878906 14.125 -13.460938 14.34375 -12.890625 C 14.570312 -12.316406 14.828125 -11.675781 15.109375 -10.96875 C 15.398438 -10.257812 15.707031 -9.507812 16.03125 -8.71875 C 16.351562 -7.925781 16.65625 -7.175781 16.9375 -6.46875 C 17.226562 -5.769531 17.488281 -5.132812 17.71875 -4.5625 C 17.957031 -3.988281 18.140625 -3.570312 18.265625 -3.3125 C 18.285156 -3.269531 18.296875 -3.164062 18.296875 -3 L 18.296875 -2.75 C 18.296875 -2.425781 18.257812 -2.109375 18.1875 -1.796875 C 18.113281 -1.492188 17.925781 -1.253906 17.625 -1.078125 L 16.828125 -1.078125 C 16.191406 -1.078125 15.71875 -1.191406 15.40625 -1.421875 C 15.101562 -1.660156 14.867188 -1.953125 14.703125 -2.296875 C 14.546875 -2.640625 14.441406 -3.007812 14.390625 -3.40625 C 14.335938 -3.8125 14.257812 -4.195312 14.15625 -4.5625 C 14.0625 -4.925781 13.910156 -5.234375 13.703125 -5.484375 C 13.503906 -5.742188 13.179688 -5.90625 12.734375 -5.96875 C 12.535156 -5.988281 12.179688 -6.019531 11.671875 -6.0625 C 11.171875 -6.101562 10.640625 -6.144531 10.078125 -6.1875 C 9.515625 -6.226562 8.976562 -6.269531 8.46875 -6.3125 C 7.96875 -6.363281 7.617188 -6.390625 7.421875 -6.390625 C 7.367188 -6.410156 7.25 -6.421875 7.0625 -6.421875 L 6.640625 -6.421875 C 6.203125 -6.421875 5.851562 -6.265625 5.59375 -5.953125 C 5.332031 -5.640625 5.117188 -5.25 4.953125 -4.78125 C 4.785156 -4.3125 4.632812 -3.8125 4.5 -3.28125 C 4.375 -2.75 4.210938 -2.25 4.015625 -1.78125 C 3.828125 -1.3125 3.578125 -0.914062 3.265625 -0.59375 C 2.960938 -0.28125 2.539062 -0.125 2 -0.125 C 1.457031 -0.125 1.039062 -0.28125 0.75 -0.59375 C 0.46875 -0.914062 0.328125 -1.34375 0.328125 -1.875 Z M 9.859375 -15.25 C 9.742188 -15.1875 9.648438 -15.09375 9.578125 -14.96875 C 9.515625 -14.84375 9.453125 -14.71875 9.390625 -14.59375 C 9.265625 -14.269531 9.101562 -13.859375 8.90625 -13.359375 C 8.71875 -12.859375 8.523438 -12.375 8.328125 -11.90625 C 8.140625 -11.4375 7.914062 -10.859375 7.65625 -10.171875 L 7.65625 -9.5 C 7.65625 -9.476562 7.820312 -9.4375 8.15625 -9.375 C 8.488281 -9.320312 8.753906 -9.285156 8.953125 -9.265625 C 9.085938 -9.265625 9.3125 -9.257812 9.625 -9.25 C 9.9375 -9.238281 10.273438 -9.234375 10.640625 -9.234375 C 10.992188 -9.234375 11.328125 -9.226562 11.640625 -9.21875 C 11.953125 -9.207031 12.171875 -9.203125 12.296875 -9.203125 C 12.296875 -9.554688 12.226562 -9.90625 12.09375 -10.25 C 11.96875 -10.59375 11.8125 -11 11.625 -11.46875 C 11.4375 -11.9375 11.238281 -12.421875 11.03125 -12.921875 C 10.832031 -13.429688 10.664062 -13.835938 10.53125 -14.140625 C 10.488281 -14.234375 10.40625 -14.421875 10.28125 -14.703125 C 10.15625 -14.984375 10.015625 -15.164062 9.859375 -15.25 Z M 9.859375 -15.25 "/></g></g><g style="fill:#ffffff;fill-opacity:1;"><g transform="translate(60.382145, 29.290001)"><path style="stroke:none" d="M 0.515625 -2.296875 C 0.515625 -2.816406 0.5625 -3.328125 0.65625 -3.828125 C 0.75 -4.335938 0.796875 -4.847656 0.796875 -5.359375 C 0.796875 -7.492188 0.710938 -9.609375 0.546875 -11.703125 C 0.378906 -13.796875 0.296875 -15.90625 0.296875 -18.03125 C 0.296875 -18.8125 0.300781 -19.535156 0.3125 -20.203125 C 0.320312 -20.867188 0.40625 -21.582031 0.5625 -22.34375 C 0.632812 -22.59375 0.757812 -22.734375 0.9375 -22.765625 C 1.125 -22.796875 1.320312 -22.8125 1.53125 -22.8125 C 1.914062 -22.8125 2.234375 -22.773438 2.484375 -22.703125 C 2.742188 -22.640625 3.066406 -22.519531 3.453125 -22.34375 L 7.859375 -22.34375 C 8.410156 -22.3125 9.003906 -22.296875 9.640625 -22.296875 C 9.941406 -22.296875 10.257812 -22.300781 10.59375 -22.3125 L 10.9375 -22.3125 C 11.820312 -22.3125 12.679688 -22.238281 13.515625 -22.09375 C 14.441406 -21.925781 15.289062 -21.613281 16.0625 -21.15625 C 16.832031 -20.695312 17.40625 -19.976562 17.78125 -19 C 17.78125 -18.957031 17.785156 -18.863281 17.796875 -18.71875 C 17.816406 -18.570312 17.828125 -18.410156 17.828125 -18.234375 L 17.828125 -17.46875 C 17.828125 -15.988281 17.460938 -14.707031 16.734375 -13.625 C 16.015625 -12.539062 15.085938 -11.640625 13.953125 -10.921875 C 12.828125 -10.210938 11.582031 -9.6875 10.21875 -9.34375 C 8.863281 -9.007812 7.550781 -8.84375 6.28125 -8.84375 C 5.925781 -8.84375 5.570312 -8.867188 5.21875 -8.921875 C 4.875 -8.972656 4.519531 -9 4.15625 -9 C 4.15625 -8.320312 4.179688 -7.648438 4.234375 -6.984375 C 4.285156 -6.328125 4.3125 -5.660156 4.3125 -4.984375 C 4.3125 -4.722656 4.304688 -4.332031 4.296875 -3.8125 C 4.285156 -3.289062 4.21875 -2.78125 4.09375 -2.28125 C 3.96875 -1.78125 3.769531 -1.347656 3.5 -0.984375 C 3.238281 -0.617188 2.847656 -0.4375 2.328125 -0.4375 C 1.753906 -0.4375 1.304688 -0.609375 0.984375 -0.953125 C 0.671875 -1.296875 0.515625 -1.742188 0.515625 -2.296875 Z M 4.3125 -19.234375 L 3.984375 -19.09375 C 3.753906 -18.988281 3.640625 -18.890625 3.640625 -18.796875 L 3.640625 -13.921875 C 3.640625 -13.578125 3.671875 -13.332031 3.734375 -13.1875 C 3.804688 -13.050781 3.910156 -12.953125 4.046875 -12.890625 C 4.179688 -12.835938 4.335938 -12.796875 4.515625 -12.765625 C 4.703125 -12.742188 4.921875 -12.691406 5.171875 -12.609375 C 5.222656 -12.585938 5.316406 -12.539062 5.453125 -12.46875 C 5.585938 -12.40625 5.722656 -12.332031 5.859375 -12.25 C 6.003906 -12.175781 6.140625 -12.101562 6.265625 -12.03125 C 6.390625 -11.96875 6.472656 -11.9375 6.515625 -11.9375 C 6.535156 -11.9375 6.628906 -11.929688 6.796875 -11.921875 C 6.972656 -11.910156 7.113281 -11.90625 7.21875 -11.90625 C 7.90625 -11.90625 8.65625 -12.015625 9.46875 -12.234375 C 10.289062 -12.460938 11.054688 -12.789062 11.765625 -13.21875 C 12.484375 -13.644531 13.082031 -14.171875 13.5625 -14.796875 C 14.039062 -15.421875 14.28125 -16.140625 14.28125 -16.953125 C 14.28125 -17.546875 14.203125 -17.984375 14.046875 -18.265625 C 13.898438 -18.554688 13.53125 -18.734375 12.9375 -18.796875 C 12.71875 -18.816406 12.359375 -18.847656 11.859375 -18.890625 C 11.359375 -18.941406 10.832031 -18.988281 10.28125 -19.03125 C 9.726562 -19.070312 9.222656 -19.113281 8.765625 -19.15625 C 8.304688 -19.207031 8.003906 -19.234375 7.859375 -19.234375 L 7.578125 -19.234375 C 7.453125 -19.234375 7.289062 -19.238281 7.09375 -19.25 C 6.90625 -19.269531 6.710938 -19.28125 6.515625 -19.28125 L 5.71875 -19.28125 C 5.550781 -19.28125 5.375 -19.269531 5.1875 -19.25 C 5.007812 -19.238281 4.828125 -19.234375 4.640625 -19.234375 Z M 4.3125 -19.234375 "/></g></g><g style="fill:#ffffff;fill-opacity:1;"><g transform="translate(78.541903, 29.290001)"><path style="stroke:none" d="M 0.765625 -1.96875 C 0.773438 -2.519531 0.78125 -3.054688 0.78125 -3.578125 C 0.78125 -4.816406 0.75 -6.007812 0.6875 -7.15625 C 0.570312 -8.769531 0.515625 -10.441406 0.515625 -12.171875 C 0.515625 -12.378906 0.5625 -12.601562 0.65625 -12.84375 C 0.75 -13.09375 0.867188 -13.328125 1.015625 -13.546875 C 1.171875 -13.773438 1.347656 -13.96875 1.546875 -14.125 C 1.753906 -14.28125 1.972656 -14.359375 2.203125 -14.359375 C 2.671875 -14.359375 3.066406 -14.15625 3.390625 -13.75 C 3.710938 -13.351562 3.9375 -12.960938 4.0625 -12.578125 C 4.082031 -12.335938 4.117188 -11.898438 4.171875 -11.265625 C 4.222656 -10.628906 4.269531 -9.957031 4.3125 -9.25 C 4.351562 -8.550781 4.394531 -7.890625 4.4375 -7.265625 C 4.488281 -6.640625 4.515625 -6.207031 4.515625 -5.96875 C 4.515625 -5.925781 4.519531 -5.828125 4.53125 -5.671875 C 4.539062 -5.523438 4.546875 -5.347656 4.546875 -5.140625 L 4.546875 -3.15625 C 4.546875 -2.945312 4.539062 -2.75 4.53125 -2.5625 C 4.519531 -2.382812 4.515625 -2.265625 4.515625 -2.203125 C 4.398438 -1.773438 4.140625 -1.441406 3.734375 -1.203125 C 3.335938 -0.972656 2.9375 -0.859375 2.53125 -0.859375 C 2.394531 -0.859375 2.222656 -0.878906 2.015625 -0.921875 C 1.804688 -0.972656 1.609375 -1.046875 1.421875 -1.140625 C 1.242188 -1.234375 1.085938 -1.347656 0.953125 -1.484375 C 0.828125 -1.628906 0.765625 -1.789062 0.765625 -1.96875 Z M 0.328125 -17.328125 C 0.328125 -17.835938 0.519531 -18.238281 0.90625 -18.53125 C 1.300781 -18.820312 1.734375 -18.96875 2.203125 -18.96875 C 2.421875 -18.96875 2.625 -18.90625 2.8125 -18.78125 C 3.007812 -18.664062 3.171875 -18.507812 3.296875 -18.3125 C 3.421875 -18.125 3.515625 -17.914062 3.578125 -17.6875 C 3.640625 -17.46875 3.671875 -17.253906 3.671875 -17.046875 C 3.671875 -16.679688 3.523438 -16.359375 3.234375 -16.078125 C 2.953125 -15.796875 2.609375 -15.65625 2.203125 -15.65625 C 1.992188 -15.65625 1.773438 -15.695312 1.546875 -15.78125 C 1.328125 -15.875 1.128906 -16 0.953125 -16.15625 C 0.785156 -16.320312 0.640625 -16.5 0.515625 -16.6875 C 0.390625 -16.882812 0.328125 -17.097656 0.328125 -17.328125 Z M 0.328125 -17.328125 "/></g></g><g style="fill:#ffffff;fill-opacity:1;"><g transform="translate(83.424788, 29.290001)"><path style="stroke:none" d="M 2.78125 -1.96875 C 2.800781 -2.769531 2.8125 -3.566406 2.8125 -4.359375 C 2.8125 -5.253906 2.800781 -6.15625 2.78125 -7.0625 C 2.71875 -8.757812 2.632812 -10.453125 2.53125 -12.140625 C 2.445312 -12.296875 2.300781 -12.445312 2.09375 -12.59375 C 1.894531 -12.738281 1.6875 -12.882812 1.46875 -13.03125 C 1.257812 -13.175781 1.046875 -13.320312 0.828125 -13.46875 C 0.617188 -13.613281 0.453125 -13.765625 0.328125 -13.921875 L 0.328125 -14.046875 C 0.328125 -14.335938 0.394531 -14.585938 0.53125 -14.796875 C 0.664062 -15.015625 0.84375 -15.195312 1.0625 -15.34375 C 1.289062 -15.5 1.53125 -15.625 1.78125 -15.71875 C 2.039062 -15.8125 2.289062 -15.878906 2.53125 -15.921875 C 2.695312 -16.773438 2.941406 -17.578125 3.265625 -18.328125 C 3.597656 -19.085938 4.019531 -19.75 4.53125 -20.3125 C 5.050781 -20.882812 5.664062 -21.335938 6.375 -21.671875 C 7.09375 -22.015625 7.921875 -22.1875 8.859375 -22.1875 C 8.960938 -22.1875 9.195312 -22.179688 9.5625 -22.171875 C 9.9375 -22.160156 10.179688 -22.140625 10.296875 -22.109375 C 10.523438 -22.085938 10.734375 -22.015625 10.921875 -21.890625 C 11.109375 -21.765625 11.269531 -21.613281 11.40625 -21.4375 C 11.550781 -21.257812 11.664062 -21.0625 11.75 -20.84375 C 11.832031 -20.632812 11.875 -20.429688 11.875 -20.234375 C 11.875 -19.992188 11.726562 -19.816406 11.4375 -19.703125 C 11.144531 -19.585938 10.785156 -19.476562 10.359375 -19.375 C 9.929688 -19.28125 9.46875 -19.171875 8.96875 -19.046875 C 8.46875 -18.921875 8.003906 -18.734375 7.578125 -18.484375 C 7.160156 -18.242188 6.804688 -17.910156 6.515625 -17.484375 C 6.222656 -17.066406 6.078125 -16.515625 6.078125 -15.828125 L 6.078125 -15.03125 C 6.347656 -14.757812 6.707031 -14.625 7.15625 -14.625 C 7.601562 -14.625 8.039062 -14.617188 8.46875 -14.609375 C 8.90625 -14.597656 9.285156 -14.503906 9.609375 -14.328125 C 9.929688 -14.160156 10.09375 -13.800781 10.09375 -13.25 C 10.09375 -13.226562 10.085938 -13.191406 10.078125 -13.140625 C 10.066406 -13.097656 10.0625 -13.066406 10.0625 -13.046875 C 9.832031 -12.671875 9.570312 -12.382812 9.28125 -12.1875 C 9 -12 8.679688 -11.859375 8.328125 -11.765625 C 7.972656 -11.679688 7.601562 -11.625 7.21875 -11.59375 C 6.832031 -11.5625 6.453125 -11.535156 6.078125 -11.515625 L 6.078125 -10.875 C 6.078125 -10.582031 6.070312 -10.273438 6.0625 -9.953125 C 6.050781 -9.628906 6.046875 -9.3125 6.046875 -9 L 6.046875 -8.390625 C 6.046875 -7.328125 6.128906 -6.304688 6.296875 -5.328125 C 6.460938 -4.347656 6.546875 -3.328125 6.546875 -2.265625 C 6.546875 -1.710938 6.367188 -1.296875 6.015625 -1.015625 C 5.671875 -0.742188 5.222656 -0.609375 4.671875 -0.609375 C 4.242188 -0.609375 3.847656 -0.722656 3.484375 -0.953125 C 3.117188 -1.191406 2.882812 -1.53125 2.78125 -1.96875 Z M 2.78125 -1.96875 "/></g></g><g style="fill:#ffffff;fill-opacity:1;"><g transform="translate(95.623834, 29.290001)"><path style="stroke:none" d="M 2.78125 1.53125 C 2.800781 1.507812 2.847656 1.394531 2.921875 1.1875 C 2.992188 0.988281 3.101562 0.773438 3.25 0.546875 C 3.40625 0.316406 3.535156 0.203125 3.640625 0.203125 L 5.65625 0.203125 C 5.695312 0.203125 5.828125 0.09375 6.046875 -0.125 C 6.273438 -0.351562 6.410156 -0.5 6.453125 -0.5625 C 6.492188 -0.632812 6.519531 -0.695312 6.53125 -0.75 C 6.539062 -0.800781 6.546875 -0.835938 6.546875 -0.859375 C 6.546875 -0.910156 6.535156 -0.992188 6.515625 -1.109375 C 6.515625 -1.128906 6.484375 -1.203125 6.421875 -1.328125 C 6.359375 -1.460938 6.285156 -1.609375 6.203125 -1.765625 C 6.117188 -1.929688 6.039062 -2.070312 5.96875 -2.1875 C 5.90625 -2.3125 5.863281 -2.398438 5.84375 -2.453125 C 5.507812 -3.265625 5.21875 -4.097656 4.96875 -4.953125 C 4.726562 -5.816406 4.488281 -6.6875 4.25 -7.5625 C 4.019531 -8.4375 3.765625 -9.296875 3.484375 -10.140625 C 3.210938 -10.984375 2.894531 -11.804688 2.53125 -12.609375 L 0.765625 -16.15625 C 0.671875 -16.34375 0.585938 -16.472656 0.515625 -16.546875 C 0.453125 -16.617188 0.40625 -16.671875 0.375 -16.703125 C 0.34375 -16.742188 0.320312 -16.789062 0.3125 -16.84375 C 0.300781 -16.894531 0.296875 -17.003906 0.296875 -17.171875 C 0.296875 -17.554688 0.410156 -17.851562 0.640625 -18.0625 C 0.878906 -18.28125 1.1875 -18.390625 1.5625 -18.390625 C 2.164062 -18.390625 2.707031 -18.191406 3.1875 -17.796875 C 3.664062 -17.398438 4.085938 -16.875 4.453125 -16.21875 C 4.828125 -15.570312 5.148438 -14.851562 5.421875 -14.0625 C 5.703125 -13.269531 5.953125 -12.476562 6.171875 -11.6875 C 6.398438 -10.894531 6.59375 -10.148438 6.75 -9.453125 C 6.90625 -8.765625 7.050781 -8.203125 7.1875 -7.765625 C 7.25 -7.546875 7.335938 -7.257812 7.453125 -6.90625 C 7.566406 -6.5625 7.679688 -6.226562 7.796875 -5.90625 C 7.921875 -5.582031 8.023438 -5.296875 8.109375 -5.046875 C 8.203125 -4.804688 8.257812 -4.675781 8.28125 -4.65625 L 8.53125 -4.40625 C 8.570312 -4.675781 8.664062 -5.132812 8.8125 -5.78125 C 8.957031 -6.4375 9.109375 -7.128906 9.265625 -7.859375 C 9.429688 -8.597656 9.585938 -9.289062 9.734375 -9.9375 C 9.890625 -10.582031 10 -11.023438 10.0625 -11.265625 C 10.082031 -11.359375 10.160156 -11.625 10.296875 -12.0625 C 10.429688 -12.507812 10.570312 -13.003906 10.71875 -13.546875 C 10.875 -14.085938 11.035156 -14.625 11.203125 -15.15625 C 11.378906 -15.6875 11.507812 -16.082031 11.59375 -16.34375 C 11.707031 -16.664062 11.929688 -16.96875 12.265625 -17.25 C 12.609375 -17.539062 12.945312 -17.6875 13.28125 -17.6875 C 13.34375 -17.6875 13.460938 -17.664062 13.640625 -17.625 C 13.828125 -17.582031 14.007812 -17.515625 14.1875 -17.421875 C 14.375 -17.335938 14.539062 -17.242188 14.6875 -17.140625 C 14.832031 -17.035156 14.90625 -16.929688 14.90625 -16.828125 L 14.90625 -15.25 C 14.53125 -14.320312 14.128906 -13.253906 13.703125 -12.046875 C 13.273438 -10.835938 12.941406 -9.695312 12.703125 -8.625 C 12.679688 -8.46875 12.613281 -8.101562 12.5 -7.53125 C 12.382812 -6.957031 12.265625 -6.332031 12.140625 -5.65625 C 12.023438 -4.988281 11.910156 -4.359375 11.796875 -3.765625 C 11.679688 -3.171875 11.613281 -2.804688 11.59375 -2.671875 C 11.53125 -2.296875 11.429688 -1.941406 11.296875 -1.609375 C 11.171875 -1.273438 10.984375 -0.960938 10.734375 -0.671875 C 10.484375 -0.398438 10.15625 -0.0546875 9.75 0.359375 C 9.351562 0.785156 8.96875 1.195312 8.59375 1.59375 C 8.226562 2 7.90625 2.347656 7.625 2.640625 C 7.351562 2.929688 7.207031 3.078125 7.1875 3.078125 L 6.515625 3.3125 C 6.492188 3.3125 6.382812 3.289062 6.1875 3.25 C 6 3.207031 5.773438 3.148438 5.515625 3.078125 C 5.265625 3.003906 5 2.929688 4.71875 2.859375 C 4.445312 2.785156 4.226562 2.710938 4.0625 2.640625 C 4.019531 2.617188 3.925781 2.570312 3.78125 2.5 C 3.644531 2.4375 3.492188 2.351562 3.328125 2.25 C 3.160156 2.15625 3.019531 2.039062 2.90625 1.90625 C 2.820312 1.8125 2.78125 1.707031 2.78125 1.59375 Z M 2.78125 1.53125 "/></g></g></g><mask id="7e07e83b12"><g filter="url(#7d6e70319e)"><rect x="0" width="375" y="0" height="374.999991" style="fill:#000000;fill-opacity:0.2;stroke:none;"/></g></mask></g></g></svg>